REM DIRINDEX 1\2,1\3,1\4,1\5
REM DIRNAME "folder01","folder02","folder03","folder04","folder05"
TITLE ""
FILE "1Q_t_2058-2067.mp3" MP3
  TRACK 01 AUDIO
    TITLE "3:cjc172_7185"
    INDEX 01 00:00:00
  TRACK 02 AUDIO
    TITLE "0:"
    INDEX 01 00:01:12
  TRACK 03 AUDIO
    TITLE "4:cjc172_7186"
    INDEX 01 00:01:22
  TRACK 04 AUDIO
    TITLE "0:"
    INDEX 01 00:03:60
  TRACK 05 AUDIO
    TITLE "5:cjc172_7187"
    INDEX 01 00:03:67
  TRACK 06 AUDIO
    TITLE "0:"
    INDEX 01 00:07:53
  TRACK 07 AUDIO
    TITLE "3:cjc172_7188"
    INDEX 01 00:08:25
  TRACK 08 AUDIO
    TITLE "0:"
    INDEX 01 00:09:58
  TRACK 09 AUDIO
    TITLE "4:cjc172_7189"
    INDEX 01 00:09:66
  TRACK 10 AUDIO
    TITLE "0:"
    INDEX 01 00:11:45
  TRACK 11 AUDIO
    TITLE "5:cjc172_7190"
    INDEX 01 00:11:53
  TRACK 12 AUDIO
    TITLE "0:"
    INDEX 01 00:15:61
  TRACK 13 AUDIO
    TITLE "3:cjc172_7191"
    INDEX 01 00:16:33
  TRACK 14 AUDIO
    TITLE "0:"
    INDEX 01 00:17:56
  TRACK 15 AUDIO
    TITLE "4:cjc172_7192"
    INDEX 01 00:17:66
  TRACK 16 AUDIO
    TITLE "0:"
    INDEX 01 00:20:56
  TRACK 17 AUDIO
    TITLE "5:cjc172_7193"
    INDEX 01 00:20:66
  TRACK 18 AUDIO
    TITLE "0:"
    INDEX 01 00:26:29
  TRACK 19 AUDIO
    TITLE "3:cjc172_7194"
    INDEX 01 00:26:72
  TRACK 20 AUDIO
    TITLE "0:"
    INDEX 01 00:28:01
  TRACK 21 AUDIO
    TITLE "4:cjc172_7195"
    INDEX 01 00:28:14
  TRACK 22 AUDIO
    TITLE "0:"
    INDEX 01 00:30:70
  TRACK 23 AUDIO
    TITLE "5:cjc172_7196"
    INDEX 01 00:31:05
  TRACK 24 AUDIO
    TITLE "0:"
    INDEX 01 00:35:38
  TRACK 25 AUDIO
    TITLE "3:cjc172_7197"
    INDEX 01 00:36:10
  TRACK 26 AUDIO
    TITLE "0:"
    INDEX 01 00:37:23
  TRACK 27 AUDIO
    TITLE "4:cjc172_7198"
    INDEX 01 00:37:35
  TRACK 28 AUDIO
    TITLE "0:"
    INDEX 01 00:39:67
  TRACK 29 AUDIO
    TITLE "5:cjc172_7199"
    INDEX 01 00:40:00
  TRACK 30 AUDIO
    TITLE "0:"
    INDEX 01 00:44:72
  TRACK 31 AUDIO
    TITLE "3:cjc172_7200"
    INDEX 01 00:45:44
  TRACK 32 AUDIO
    TITLE "0:"
    INDEX 01 00:46:63
  TRACK 33 AUDIO
    TITLE "4:cjc172_7201"
    INDEX 01 00:46:73
  TRACK 34 AUDIO
    TITLE "0:"
    INDEX 01 00:49:26
  TRACK 35 AUDIO
    TITLE "5:cjc172_7202"
    INDEX 01 00:49:34
  TRACK 36 AUDIO
    TITLE "0:"
    INDEX 01 00:53:07
  TRACK 37 AUDIO
    TITLE "3:cjc172_7203"
    INDEX 01 00:53:57
  TRACK 38 AUDIO
    TITLE "0:"
    INDEX 01 00:55:03
  TRACK 39 AUDIO
    TITLE "4:cjc172_7204"
    INDEX 01 00:55:13
  TRACK 40 AUDIO
    TITLE "0:"
    INDEX 01 00:57:40
  TRACK 41 AUDIO
    TITLE "5:cjc172_7205"
    INDEX 01 00:57:49
  TRACK 42 AUDIO
    TITLE "0:"
    INDEX 01 01:02:62
  TRACK 43 AUDIO
    TITLE "3:cjc172_7206"
    INDEX 01 01:03:32
  TRACK 44 AUDIO
    TITLE "0:"
    INDEX 01 01:04:48
  TRACK 45 AUDIO
    TITLE "4:cjc172_7207"
    INDEX 01 01:04:55
  TRACK 46 AUDIO
    TITLE "0:"
    INDEX 01 01:08:39
  TRACK 47 AUDIO
    TITLE "5:cjc172_7208"
    INDEX 01 01:08:47
  TRACK 48 AUDIO
    TITLE "0:"
    INDEX 01 01:14:01
  TRACK 49 AUDIO
    TITLE "3:cjc172_7209"
    INDEX 01 01:14:46
  TRACK 50 AUDIO
    TITLE "0:"
    INDEX 01 01:15:59
  TRACK 51 AUDIO
    TITLE "4:cjc172_7210"
    INDEX 01 01:15:69
  TRACK 52 AUDIO
    TITLE "0:"
    INDEX 01 01:19:12
  TRACK 53 AUDIO
    TITLE "5:cjc172_7211"
    INDEX 01 01:19:22
  TRACK 54 AUDIO
    TITLE "0:"
    INDEX 01 01:23:17
  TRACK 55 AUDIO
    TITLE "3:cjc172_7212"
    INDEX 01 01:23:66
  TRACK 56 AUDIO
    TITLE "0:"
    INDEX 01 01:25:18
  TRACK 57 AUDIO
    TITLE "4:cjc172_7213"
    INDEX 01 01:25:28
  TRACK 58 AUDIO
    TITLE "0:"
    INDEX 01 01:28:72
  TRACK 59 AUDIO
    TITLE "5:cjc172_7214"
    INDEX 01 01:29:04
  TRACK 60 AUDIO
    TITLE "0:"
    INDEX 01 01:36:59
